<svg width="23" height="23" viewBox="0 0 23 23" fill="none" xmlns="http://www.w3.org/2000/svg">
<path d="M20.9166 0.593018H2.16174C1.30237 0.593018 0.604126 1.30103 0.604126 2.17017V20.8909C0.604126 21.76 1.30237 22.468 2.16174 22.468H20.9166C21.776 22.468 22.4791 21.76 22.4791 20.8909V2.17017C22.4791 1.30103 21.776 0.593018 20.9166 0.593018ZM7.21545 19.343H3.97327V8.90356H7.22034V19.343H7.21545ZM5.59436 7.47778C4.55432 7.47778 3.71448 6.63306 3.71448 5.5979C3.71448 4.56274 4.55432 3.71802 5.59436 3.71802C6.62952 3.71802 7.47424 4.56274 7.47424 5.5979C7.47424 6.63794 6.6344 7.47778 5.59436 7.47778V7.47778ZM19.3688 19.343H16.1266V14.2649C16.1266 13.054 16.1022 11.4963 14.442 11.4963C12.7526 11.4963 12.4938 12.8147 12.4938 14.177V19.343H9.25159V8.90356H12.3619V10.3293H12.4059C12.8405 9.50903 13.9 8.64478 15.4772 8.64478C18.7584 8.64478 19.3688 10.8079 19.3688 13.6204V19.343V19.343Z" fill="black"/>
</svg>
