<svg width="23" height="23" viewBox="0 0 23 23" fill="none" xmlns="http://www.w3.org/2000/svg">
<path d="M20.4297 0.127441H3.24219C1.94824 0.127441 0.898438 1.17725 0.898438 2.47119V19.6587C0.898438 20.9526 1.94824 22.0024 3.24219 22.0024H20.4297C21.7236 22.0024 22.7734 20.9526 22.7734 19.6587V2.47119C22.7734 1.17725 21.7236 0.127441 20.4297 0.127441ZM18.042 7.88135C18.0518 8.01807 18.0518 8.15967 18.0518 8.29639C18.0518 12.5298 14.8291 17.4077 8.94043 17.4077C7.12402 17.4077 5.43945 16.8804 4.02344 15.9722C4.28223 16.0015 4.53125 16.0112 4.79492 16.0112C6.29395 16.0112 7.6709 15.5034 8.76953 14.644C7.36328 14.6147 6.18164 13.6919 5.77637 12.4224C6.26953 12.4956 6.71387 12.4956 7.22168 12.3638C5.75684 12.0659 4.6582 10.7769 4.6582 9.21924V9.18018C5.08301 9.41943 5.58105 9.56592 6.10352 9.58545C5.66427 9.29328 5.30419 8.89691 5.05541 8.43172C4.80662 7.96652 4.67687 7.44697 4.67773 6.91943C4.67773 6.32373 4.83398 5.77686 5.1123 5.30322C6.68945 7.24658 9.05762 8.51611 11.7139 8.65283C11.2598 6.47998 12.8857 4.71729 14.8389 4.71729C15.7617 4.71729 16.5918 5.10303 17.1777 5.72803C17.9004 5.59131 18.5937 5.32275 19.209 4.95654C18.9697 5.69873 18.4668 6.32373 17.8027 6.71924C18.4473 6.65088 19.0723 6.47021 19.6484 6.22119C19.2139 6.86084 18.667 7.42725 18.042 7.88135Z" fill="black"/>
</svg>
